<svg id="Capa_1" enable-background="new 0 0 508 508" height="512" viewBox="0 0 508 508" width="512" xmlns="http://www.w3.org/2000/svg"><g><path d="m396.63 243.989 92.58-133.083c9.629-13.842 15.176-30.059 16.041-46.898.864-16.839-2.991-33.54-11.151-48.295-5.36-9.692-15.57-15.713-26.644-15.713h-15.798c-24.929 0-49.121 7.34-69.53 20.899-11.292-13.094-27.915-20.899-45.498-20.899h-274c-33.084 0-60 26.916-60 60 0 5.523 4.477 10 10 10h90v378c0 33.084 26.916 60 60 60h274c33.084 0 60-26.916 60-60 0-5.523-4.478-10-10-10h-90v-61.15c0-13.333-20-13.333-20 0v61.15h-164c-5.523 0-10 4.477-10 10 0 22.056-17.944 40-40 40s-40-17.944-40-40v-388c0-15.353-5.796-29.377-15.315-40h229.315c11.404 0 22.204 4.927 29.717 13.235-14.283 12.408-28.142 25.346-41.532 38.765h-154.185c-5.523 0-10 4.477-10 10s4.477 10 10 10h134.909c-12.053 12.947-23.679 26.293-34.84 40h-100.069c-5.523 0-10 4.477-10 10s4.477 10 10 10h84.451c-8.62 12.219-15.165 25.735-19.411 40h-65.04c-5.523 0-10 4.477-10 10s4.477 10 10 10h60.677c-2.064 13-3.008 37.046-1.985 51.23-34.191 60.399-59.82 124.977-76.333 192.409-3.17 12.945 16.256 17.702 19.426 4.757 1.583-6.463 3.248-12.893 4.995-19.29 6.011-19.777 24.331-33.458 45.078-33.458 4.229 0 8.001-2.661 9.42-6.645 12.326-34.604 27.475-68.407 45.054-100.546l42.764-6.343c21.249-3.152 41.053-12.561 56.903-26.67v19.407c0 13.325 20 13.325 20 0v-42.862zm-174.834 214.011h253.568c-4.451 17.233-20.13 30-38.734 30h-229.315c7.407-8.266 12.56-18.592 14.481-30zm-197.9-408c4.451-17.233 20.13-30 38.734-30s34.283 12.767 38.734 30zm191.436 338.031c-8.44.907-16.487 3.401-23.791 7.212 10.338-30.064 22.553-59.285 36.568-87.54l24.244-3.596c-14.083 27.09-26.494 55.221-37.021 83.924zm101.46-113.701-77.358 11.474c43.69-81.086 102.586-153.636 174.755-214.553 10.08-8.508-2.82-23.792-12.9-15.283-59.191 49.962-110.206 108.319-151.702 173.528.3-3.865.687-7.831 1.161-11.893 2.48-21.248 10.711-41.409 23.803-58.304 32.184-41.533 68.7-79.919 108.534-114.093 18.947-16.254 43.301-25.206 68.573-25.206h15.798c3.8 0 7.303 2.066 9.142 5.391 13.041 23.581 11.583 51.972-3.806 74.093l-44.82 64.429c-14.063 20.163-36.067 33.794-60.387 37.401l-28.817 4.274c-12.242.895-10.788 20.788 1.454 19.893.487-.036 30.297-4.384 30.297-4.384 7.368-1.093 14.562-2.939 21.478-5.471l-14.759 21.215c-14.06 20.213-36.091 33.876-60.446 37.489zm79.838 57.52c0 5.52-4.49 10-10 10s-10-4.48-10-10c0-5.51 4.49-10 10-10s10 4.49 10 10z"/></g></svg>